<svg width="68" height="56" viewBox="0 0 68 56" fill="none" xmlns="http://www.w3.org/2000/svg">
<path d="M53.1758 30.9098L46.4069 42.6318C45.2284 44.675 43.0536 45.9312 40.701 45.9268L27.2083 45.9006C24.8577 45.8962 22.6859 44.6321 21.5142 42.5839L14.791 30.8362C14.6367 30.5678 14.5036 30.291 14.3911 30.0083L6.65196 29.9935C7.00222 33.966 8.20824 37.8348 10.1939 41.3065C12.5926 45.4951 16.0599 48.9914 20.2208 51.4145C24.3822 53.8382 29.1242 55.125 33.9389 55.1344C38.7493 55.1438 43.4962 53.8747 47.6679 51.4673C51.8371 49.06 55.3191 45.577 57.7316 41.3973C59.731 37.934 60.9528 34.0691 61.3183 30.0981L53.5791 30.0833C53.4642 30.3655 53.33 30.6423 53.1758 30.9098Z" fill="#B37B97"/>
<path d="M61.3267 25.1409C60.9769 21.1675 59.7704 17.2991 57.7848 13.8289C55.387 9.63888 51.9192 6.14403 47.7583 3.71989C43.5965 1.29575 38.8544 0.00942561 34.0441 5.07528e-05H34.0407C29.2289 -0.0093241 24.4829 1.25875 20.3117 3.6671C16.141 6.07545 12.6605 9.55747 10.247 13.7377C8.24711 17.2004 7.02635 21.0644 6.66135 25.0363L0.00196392 25.0235L0 26.036L23.9917 26.0819L23.9936 25.0694L14.403 25.0511C14.5164 24.7694 14.6496 24.4926 14.8028 24.2247L21.5718 12.5026C22.7513 10.4599 24.927 9.2032 27.2776 9.20764L40.7703 9.23379C43.1229 9.23823 45.2928 10.5033 46.4639 12.5505L53.1881 24.2982C53.3414 24.5666 53.4726 24.8444 53.5855 25.1261L43.9934 25.1079L43.9914 26.1204L67.9841 26.1663L67.9861 25.1538L61.3267 25.1409Z" fill="#B37B97"/>
</svg>
