<svg width="30" height="31" viewBox="0 0 30 31" fill="none" xmlns="http://www.w3.org/2000/svg">
<g id="Attention">
<path id="Vector" d="M27.1625 23L17.1625 5.50004C16.9445 5.11529 16.6283 4.79527 16.2462 4.57262C15.8641 4.34997 15.4298 4.23267 14.9875 4.23267C14.5453 4.23267 14.111 4.34997 13.7289 4.57262C13.3468 4.79527 13.0306 5.11529 12.8125 5.50004L2.81253 23C2.59214 23.3817 2.47657 23.8149 2.47755 24.2557C2.47852 24.6964 2.59601 25.1291 2.81809 25.5098C3.04018 25.8905 3.35897 26.2058 3.74215 26.4236C4.12534 26.6414 4.55929 26.754 5.00003 26.75H25C25.4387 26.7496 25.8694 26.6337 26.2491 26.4141C26.6288 26.1945 26.9441 25.8789 27.1632 25.4989C27.3823 25.119 27.4976 24.688 27.4975 24.2494C27.4974 23.8108 27.3818 23.3799 27.1625 23Z" stroke="#292944" stroke-width="3" stroke-linecap="round" stroke-linejoin="round"/>
<path id="Vector_2" d="M15 11.75V16.75" stroke="#292944" stroke-width="3" stroke-linecap="round" stroke-linejoin="round"/>
<path id="Vector_3" d="M15 21.75H15.012" stroke="#292944" stroke-width="3" stroke-linecap="round" stroke-linejoin="round"/>
</g>
</svg>
