<svg width="493" height="79" viewBox="0 0 493 79" fill="none" xmlns="http://www.w3.org/2000/svg">
<rect width="493" height="79" fill="#1E1E1E"/>
<g clip-path="url(#clip0_0_1)">
<rect width="493" height="79" fill="#3E3E57"/>
<path d="M109.682 26.777V29.7776H103.287V37.513H109.682V63.3861H118.844V37.513H128.339V29.7776H118.844V27.3104C118.844 24.6437 120.626 22.9082 123.329 22.9082H128.339V15.1738H122.076C114.627 15.1738 109.682 19.7744 109.682 26.777Z" fill="#F2F2EA"/>
<path d="M154.773 48.1818C154.773 52.4496 151.938 55.6506 147.916 55.6506C144.158 55.6506 141.522 52.7162 141.522 48.649V29.7776H132.358V50.7162C132.358 58.3845 137.237 63.9194 144.686 63.9194C149.236 63.9194 152.927 61.9184 154.773 58.7173V63.3861H164.003V29.7776H154.773V48.1818Z" fill="#F2F2EA"/>
<path d="M190.04 29.2433C185.492 29.2433 181.8 31.1771 179.954 34.4433V29.7766H170.724V63.3851H179.954V44.9809C179.954 40.6459 182.788 37.5121 186.809 37.5121C190.634 37.5121 193.205 40.4465 193.205 44.5137V63.3851H202.435V42.4465C202.435 34.711 197.556 29.2433 190.04 29.2433Z" fill="#F2F2EA"/>
<path d="M224.648 55.9173C219.769 55.9173 216.539 52.1829 216.539 46.5818C216.539 40.9136 219.769 37.1792 224.648 37.1792C229.527 37.1792 232.757 40.9136 232.757 46.5818C232.757 52.1829 229.527 55.9173 224.648 55.9173ZM232.23 33.3114C230.383 30.8442 227.152 29.2442 223 29.2442C213.374 29.2442 207.44 36.1125 207.44 46.5818C207.44 57.0512 213.374 63.9194 223.131 63.9194C226.956 63.9194 230.383 62.3184 232.23 59.7178V63.3861H241.394V15.1738H232.23V33.3114Z" fill="#F2F2EA"/>
<path d="M267.827 49.5824C267.827 53.8501 265.256 57.1845 260.773 57.1845C258.202 57.1845 256.357 55.6506 256.357 53.4512C256.357 50.8496 258.334 49.1152 261.102 49.1152H267.827V49.5824ZM262.421 29.2442C253.323 29.2442 247.918 34.6458 247.523 41.3797H255.697C255.829 38.5797 257.872 36.0453 261.893 36.0453C265.652 36.0453 267.827 37.9792 267.827 40.7802C267.827 42.1797 266.969 43.2474 265.322 43.2474H259.718C252.467 43.2474 247.588 47.2485 247.588 53.8501C247.588 59.5845 252.005 63.9194 258.466 63.9194C263.015 63.9194 266.707 61.8522 267.827 58.7173V63.3861H276.925V41.7808C276.925 34.1786 270.794 29.2442 262.421 29.2442Z" fill="#F2F2EA"/>
<path d="M299.008 55.9173C293.996 55.9173 291.03 52.0485 291.03 46.5818C291.03 41.113 293.93 37.1792 298.875 37.1792C302.238 37.1792 305.073 39.3797 305.6 42.3802H314.829C314.236 34.5786 307.315 29.2442 298.612 29.2442C288.327 29.2442 281.47 36.7792 281.47 46.5818C281.47 56.3845 288.327 63.9194 298.612 63.9194C307.248 63.9194 314.104 58.3173 315.094 50.8496H305.732C305.073 53.8501 302.37 55.9173 299.008 55.9173Z" fill="#F2F2EA"/>
<path d="M287.734 77.3882H297.622L303.029 67.1194H295.513L287.734 77.3882Z" fill="#F2F2EA"/>
<path d="M338.823 49.5824C338.823 53.8501 336.251 57.1845 331.768 57.1845C329.198 57.1845 327.352 55.6506 327.352 53.4512C327.352 50.8496 329.33 49.1152 332.099 49.1152H338.823V49.5824ZM333.417 29.2442C324.319 29.2442 318.914 34.6458 318.518 41.3797H326.693C326.825 38.5797 328.868 36.0453 332.89 36.0453C336.647 36.0453 338.823 37.9792 338.823 40.7802C338.823 42.1797 337.965 43.2474 336.318 43.2474H330.714C323.463 43.2474 318.583 47.2485 318.583 53.8501C318.583 59.5845 323 63.9194 329.461 63.9194C334.011 63.9194 337.703 61.8522 338.823 58.7173V63.3861H347.92V41.7808C347.92 34.1786 341.789 29.2442 333.417 29.2442Z" fill="#F2F2EA"/>
<path d="M330.318 23.1088C332.494 23.1088 333.812 25.6421 337.438 25.6421C341.658 25.6421 345.218 22.1082 345.218 16.5072H339.548C339.285 17.9077 338.361 18.9072 336.911 18.9072C334.603 18.9072 333.482 16.3738 329.79 16.3738C325.506 16.3738 322.011 20.3077 322.077 25.4426H327.88C328.077 24.0421 329 23.1088 330.318 23.1088Z" fill="#F2F2EA"/>
<path d="M370.003 55.9173C365.059 55.9173 361.695 52.1168 361.695 46.5818C361.695 40.9808 365.059 37.1792 370.003 37.1792C374.947 37.1792 378.31 40.9808 378.31 46.5818C378.31 52.1168 374.947 55.9173 370.003 55.9173ZM370.003 29.2442C359.784 29.2442 352.466 36.5786 352.466 46.5818C352.466 56.584 359.784 63.9194 370.003 63.9194C380.221 63.9194 387.54 56.584 387.54 46.5818C387.54 36.5786 380.221 29.2442 370.003 29.2442Z" fill="#F2F2EA"/>
<path d="M408.369 55.9173C403.358 55.9173 400.391 52.0485 400.391 46.5818C400.391 41.113 403.291 37.1792 408.237 37.1792C411.599 37.1792 414.434 39.3797 414.962 42.3802H424.19C423.597 34.5786 416.676 29.2442 407.973 29.2442C397.688 29.2442 390.831 36.7792 390.831 46.5818C390.831 56.3845 397.688 63.9194 407.973 63.9194C416.61 63.9194 423.466 58.3173 424.455 50.8496H415.094C414.434 53.8501 411.731 55.9173 408.369 55.9173Z" fill="#B37B97"/>
<path d="M435.659 39.0459C435.659 36.9125 437.439 35.7776 440.011 35.7776C442.516 35.7776 445.087 37.3125 445.482 40.1797H453.46C453.13 33.5771 447.723 29.2432 439.746 29.2432C432.956 29.2432 427.88 33.4448 427.88 39.3787C427.88 53.5163 445.746 46.7813 445.746 53.6485C445.746 55.5163 443.768 56.9168 440.933 56.9168C437.506 56.9168 435.197 55.0501 434.869 52.0485H426.957C427.286 59.3179 432.824 63.9184 440.933 63.9184C448.713 63.9184 453.855 59.7179 453.855 53.3157C453.855 38.1125 435.659 45.9141 435.659 39.0459Z" fill="#B37B97"/>
<path d="M478.311 29.2433C473.762 29.2433 470.07 31.1771 468.223 34.4433V29.7766H458.994V63.3851H468.223V44.9809C468.223 40.6459 471.059 37.5121 475.08 37.5121C478.904 37.5121 481.475 40.4465 481.475 44.5137V63.3851H490.705V42.4465C490.705 34.711 485.826 29.2433 478.311 29.2433Z" fill="#B37B97"/>
<path d="M66.8251 37.9782L58.4112 52.551C56.9446 55.0907 54.2342 56.6555 51.3008 56.6555H34.471C31.5376 56.6555 28.8272 55.0907 27.3606 52.551L18.9467 37.9782C18.754 37.6447 18.5869 37.3023 18.4454 36.951H8.79309C9.23896 41.8832 10.7526 46.6854 13.2379 50.9915C16.2395 56.1872 20.5723 60.5211 25.768 63.5206C30.9648 66.52 36.8838 68.1072 42.888 68.1072C48.888 68.1072 54.807 66.52 60.0038 63.5206C65.1995 60.5211 69.5334 56.1872 72.5328 50.9904C75.0192 46.6854 76.5328 41.8832 76.9798 36.951H67.3264C67.1842 37.3023 67.0171 37.6447 66.8251 37.9782Z" fill="#B37B97"/>
<path d="M76.9787 30.7941C76.5328 25.8608 75.0192 21.0597 72.5328 16.7536C69.5323 11.5568 65.1995 7.22503 60.0027 4.2245C54.8069 1.22396 48.8891 -0.362167 42.888 -0.362167H42.8837C36.8827 -0.362167 30.9648 1.22396 25.768 4.2245C20.5712 7.22503 16.2395 11.5568 13.2389 16.7536C10.7525 21.0597 9.23894 25.8608 8.79307 30.7941H0.486938V32.0517H30.4123V30.7941H18.4485C18.59 30.4421 18.7557 30.0993 18.9456 29.7658L27.3605 15.1941C28.8283 12.6533 31.5376 11.0885 34.4699 11.0885H51.3008C54.2341 11.0885 56.9435 12.6533 58.4101 15.1941L66.8251 29.7658C67.0164 30.1001 67.182 30.4428 67.3221 30.7941H55.3584V32.0517H85.2837V30.7941H76.9787Z" fill="#B37B97"/>
</g>
<defs>
<clipPath id="clip0_0_1">
<rect width="493" height="79" fill="white"/>
</clipPath>
</defs>
</svg>
