<svg width="393" height="63" viewBox="0 0 393 63" fill="none" xmlns="http://www.w3.org/2000/svg">
<g clip-path="url(#clip0_223_269)">
<path d="M87.5515 21.9553L87.547 24.3725L82.4204 24.3626L82.4081 30.5905L87.5353 30.6004L87.4955 51.4352L94.8411 51.4496L94.8809 30.6147L102.493 30.629L102.505 24.4011L94.8927 24.3863L94.8966 22.3989C94.9006 20.2515 96.3311 18.8576 98.4985 18.8616L102.515 18.8695L102.527 12.6406L97.5062 12.6308C91.5335 12.6194 87.5623 16.3175 87.5515 21.9553Z" fill="#292944"/>
<path d="M123.67 39.2616C123.663 42.6982 121.385 45.2714 118.161 45.2654C115.148 45.2595 113.039 42.8936 113.045 39.6163L113.074 24.4212L105.727 24.4074L105.695 41.2678C105.683 47.4429 109.586 51.9073 115.559 51.9186C119.206 51.9255 122.169 50.32 123.653 47.7453L123.647 51.5046L131.046 51.519L131.097 24.4557L123.698 24.4414L123.67 39.2616Z" fill="#292944"/>
<path d="M151.973 24.066C148.326 24.0591 145.364 25.6104 143.879 28.2379L143.885 24.48L136.486 24.4657L136.435 51.5289L143.834 51.5433L143.862 36.7231C143.869 33.2317 146.146 30.7133 149.37 30.7197C152.437 30.7256 154.493 33.0921 154.487 36.3673L154.458 51.5635L161.858 51.5778L161.89 34.7169C161.902 28.488 157.999 24.0774 151.973 24.066Z" fill="#292944"/>
<path d="M179.678 45.5978C175.767 45.5904 173.183 42.5781 173.191 38.0678C173.2 33.5028 175.795 30.5008 179.706 30.5082C183.618 30.5156 186.202 33.5279 186.193 38.093C186.185 42.6033 183.589 45.6052 179.678 45.5978ZM185.791 27.4062C184.314 25.4167 181.727 24.1235 178.397 24.1171C170.681 24.1023 165.913 29.6236 165.897 38.054C165.881 46.4845 170.628 52.024 178.45 52.0393C181.516 52.0452 184.266 50.7609 185.751 48.6698L185.745 51.6239L193.092 51.6377L193.166 12.8149L185.819 12.8011L185.791 27.4062Z" fill="#292944"/>
<path d="M214.304 40.5629C214.298 43.9996 212.232 46.6808 208.637 46.6739C206.576 46.6699 205.099 45.4319 205.103 43.6596C205.107 41.5655 206.695 40.1721 208.914 40.1766L214.305 40.1869L214.304 40.5629ZM210.001 24.1777C202.707 24.1633 198.366 28.5049 198.038 33.9265L204.592 33.9393C204.702 31.6844 206.344 29.6471 209.568 29.6531C212.582 29.659 214.322 31.2197 214.318 33.475C214.316 34.602 213.626 35.4605 212.306 35.4581L207.813 35.4492C201.999 35.4383 198.082 38.6524 198.072 43.9685C198.063 48.5858 201.598 52.0841 206.777 52.0945C210.425 52.1014 213.388 50.4416 214.291 47.9187L214.283 51.6785L221.578 51.6924L221.611 34.2946C221.622 28.1733 216.714 24.1905 210.001 24.1777Z" fill="#292944"/>
<path d="M230.222 62.9848L238.149 63.0001L242.5 54.7394L236.474 54.728L230.222 62.9848Z" fill="#292944"/>
<path d="M239.293 45.7121C235.275 45.7042 232.903 42.5843 232.911 38.1826C232.92 33.7789 235.251 30.6146 239.215 30.622C241.912 30.6274 244.181 32.4047 244.598 34.8215L251.998 34.8358C251.535 28.5526 245.993 24.2466 239.016 24.2333C230.771 24.2175 225.262 30.2742 225.247 38.1678C225.232 46.0604 230.718 52.1393 238.963 52.1551C245.887 52.1684 251.392 47.668 252.197 41.6562L244.692 41.6414C244.159 44.0567 241.988 45.717 239.293 45.7121Z" fill="#292944"/>
<path d="M264.446 19.3416C266.19 19.345 267.242 21.3868 270.15 21.3927C273.533 21.3991 276.392 18.559 276.401 14.0487L271.855 14.0398C271.642 15.1673 270.9 15.9706 269.738 15.9686C267.887 15.9646 266.992 13.9224 264.033 13.9165C260.597 13.9101 257.79 17.0733 257.835 21.2072L262.487 21.2165C262.648 20.0896 263.389 19.3396 264.446 19.3416Z" fill="#292944"/>
<path d="M271.223 40.672C271.217 44.1087 269.15 46.7899 265.556 46.783C263.495 46.779 262.018 45.541 262.021 43.7687C262.025 41.6746 263.613 40.2812 265.833 40.2857L271.224 40.296L271.223 40.672ZM266.919 24.2868C259.627 24.2724 255.285 28.614 254.957 34.0356L261.511 34.0484C261.621 31.7935 263.262 29.7562 266.487 29.7622C269.499 29.7681 271.241 31.3288 271.236 33.5841C271.234 34.7111 270.545 35.5696 269.225 35.5672L264.732 35.5583C258.918 35.5474 255 38.7615 254.99 44.0776C254.981 48.6949 258.516 52.1932 263.695 52.2036C267.344 52.2105 270.307 50.5507 271.209 48.0278L271.202 51.7876L278.496 51.8015L278.529 34.4037C278.54 28.2824 273.632 24.2996 266.919 24.2868Z" fill="#292944"/>
<path d="M296.211 45.8212C292.247 45.8138 289.556 42.7472 289.565 38.2912C289.574 33.7809 292.276 30.7237 296.239 30.7316C300.203 30.739 302.894 33.8065 302.885 38.3168C302.877 42.7729 300.174 45.8286 296.211 45.8212ZM296.252 24.3429C288.059 24.3271 282.181 30.2219 282.166 38.2769C282.15 46.3309 288.006 52.2494 296.199 52.2646C304.391 52.2804 310.27 46.3851 310.285 38.3307C310.3 30.2757 304.444 24.3587 296.252 24.3429Z" fill="#292944"/>
<path d="M326.969 45.8801C322.952 45.8722 320.579 42.7524 320.588 38.3506C320.596 33.9469 322.927 30.7827 326.892 30.7901C329.588 30.7955 331.857 32.5728 332.276 34.9895L339.674 35.0038C339.211 28.7207 333.67 24.4147 326.692 24.4014C318.447 24.3856 312.938 30.4422 312.924 38.3358C312.909 46.2285 318.394 52.3073 326.639 52.3231C333.564 52.3364 339.07 47.836 339.874 41.8243L332.368 41.8095C331.835 44.2247 329.665 45.8851 326.969 45.8801Z" fill="#B37B97"/>
<path d="M348.874 32.3364C348.878 30.6183 350.306 29.7085 352.368 29.7124C354.376 29.7159 356.436 30.9553 356.747 33.2655L363.144 33.2778C362.889 27.9603 358.561 24.4625 352.166 24.4502C346.722 24.4398 342.646 27.8143 342.637 32.5935C342.615 43.9775 356.949 38.581 356.938 44.1117C356.936 45.6156 355.348 46.7401 353.075 46.7357C350.327 46.7307 348.479 45.2229 348.221 42.8066L341.878 42.7943C342.13 48.6476 346.563 52.3616 353.064 52.3739C359.301 52.3857 363.431 49.0113 363.441 43.8551C363.464 31.6125 348.864 37.8671 348.874 32.3364Z" fill="#B37B97"/>
<path d="M383.084 24.509C379.437 24.5021 376.474 26.0534 374.989 28.6808L374.996 24.923L367.596 24.9087L367.545 51.9719L374.945 51.9862L374.973 37.1661C374.979 33.6747 377.257 31.1563 380.481 31.1627C383.547 31.1681 385.603 33.535 385.597 36.8103L385.568 52.0064L392.968 52.0208L393 35.1598C393.012 28.931 389.109 24.5204 383.084 24.509Z" fill="#B37B97"/>
<path d="M53.1757 30.9098L46.4068 42.6318C45.2283 44.675 43.0535 45.9313 40.7009 45.9268L27.2082 45.9007C24.8576 45.8962 22.6858 44.6321 21.5142 42.5839L14.7909 30.8363C14.6366 30.5679 14.5035 30.291 14.391 30.0083L6.65187 29.9935C7.00213 33.966 8.20815 37.8348 10.1938 41.3065C12.5926 45.4951 16.0598 48.9914 20.2207 51.4146C24.3821 53.8382 29.1241 55.125 33.9388 55.1344C38.7492 55.1438 43.4961 53.8747 47.6678 51.4674C51.837 49.06 55.319 45.577 57.7316 41.3973C59.7309 37.934 60.9527 34.0691 61.3182 30.0981L53.579 30.0833C53.4641 30.3656 53.33 30.6424 53.1757 30.9098Z" fill="#B37B97"/>
<path d="M61.3266 25.141C60.9768 21.1675 59.7703 17.2992 57.7847 13.829C55.3869 9.63892 51.9191 6.14407 47.7582 3.71993C43.5964 1.29579 38.8543 0.00946426 34.044 8.96454e-05H34.0406C29.2288 -0.00928688 24.4828 1.25879 20.3116 3.66714C16.1409 6.07549 12.6604 9.5575 10.2469 13.7377C8.24701 17.2005 7.02626 21.0644 6.66126 25.0364L0.00187237 25.0235L-9.15527e-05 26.036L23.9916 26.0819L23.9935 25.0694L14.4029 25.0512C14.5163 24.7694 14.6495 24.4926 14.8027 24.2247L21.5717 12.5027C22.7512 10.46 24.9269 9.20323 27.2775 9.20767L40.7702 9.23383C43.1228 9.23827 45.2927 10.5034 46.4638 12.5505L53.188 24.2982C53.3413 24.5666 53.4725 24.8444 53.5855 25.1262L43.9933 25.1079L43.9913 26.1204L67.984 26.1663L67.986 25.1538L61.3266 25.141Z" fill="#B37B97"/>
</g>
<defs>
<clipPath id="clip0_223_269">
<rect width="393" height="63" fill="white"/>
</clipPath>
</defs>
</svg>
